<?xml version="1.0" encoding="UTF-8"?>
<!DOCTYPE svg PUBLIC "-//W3C//DTD SVG 1.1//EN" "http://www.w3.org/Graphics/SVG/1.1/DTD/svg11.dtd">
<svg xmlns="http://www.w3.org/2000/svg" version="1.1" width="1207px" height="1098px" style="shape-rendering:geometricPrecision; text-rendering:geometricPrecision; image-rendering:optimizeQuality; fill-rule:evenodd; clip-rule:evenodd" xmlns:xlink="http://www.w3.org/1999/xlink">
<g><path style="opacity:1" fill="#fefffe" d="M 1023.5,-0.5 C 1026.17,-0.5 1028.83,-0.5 1031.5,-0.5C 1040.69,4.51764 1048.19,11.5176 1054,20.5C 1071.44,47.0549 1085.44,75.3882 1096,105.5C 1106.17,161.483 1098.84,215.15 1074,266.5C 1051.71,297.753 1034.71,331.753 1023,368.5C 1012.9,404.734 1010.9,441.4 1017,478.5C 1020.64,499.28 1030.14,516.78 1045.5,531C 1051.28,535.01 1057.61,536.344 1064.5,535C 1074,529.508 1079.5,521.341 1081,510.5C 1081.83,501.17 1082.17,491.836 1082,482.5C 1080.72,480.283 1079.72,477.949 1079,475.5C 1075.64,456.363 1071.64,437.363 1067,418.5C 1062.09,403.034 1056.93,387.7 1051.5,372.5C 1053.62,362.273 1059.62,359.106 1069.5,363C 1072.67,366.167 1075.83,369.333 1079,372.5C 1095.11,393.948 1110.45,415.948 1125,438.5C 1128.48,444.467 1131.15,450.801 1133,457.5C 1136.58,461.653 1139.91,465.986 1143,470.5C 1150.88,485.59 1158.21,500.924 1165,516.5C 1171.86,542.412 1179.53,568.078 1188,593.5C 1193.64,616.702 1198.64,640.036 1203,663.5C 1204.53,675.954 1205.7,688.287 1206.5,700.5C 1206.5,705.5 1206.5,710.5 1206.5,715.5C 1199.3,821.749 1152.63,905.916 1066.5,968C 1021.69,998.245 974.022,1023.58 923.5,1044C 855.292,1072.24 784.292,1088.91 710.5,1094C 694.349,1095.24 678.349,1096.41 662.5,1097.5C 636.5,1097.5 610.5,1097.5 584.5,1097.5C 514.317,1094.75 445.65,1082.58 378.5,1061C 327.597,1045.37 277.597,1027.37 228.5,1007C 180.995,985.435 137.329,958.101 97.5,925C 86.9699,914.804 76.8032,904.304 67,893.5C 58.9259,882.187 53.7592,869.687 51.5,856C 51.7414,852.793 52.2414,849.626 53,846.5C 62.2735,828.513 68.4402,809.513 71.5,789.5C 70.7522,782.841 68.9189,776.507 66,770.5C 57.6667,757.167 49.3333,743.833 41,730.5C 30.6592,708.132 20.3258,685.799 10,663.5C 2.80567,640.581 -0.694332,617.247 -0.5,593.5C -0.5,592.833 -0.5,592.167 -0.5,591.5C 0.595058,570.418 3.42839,549.418 8,528.5C 9.05312,520.292 12.5531,513.458 18.5,508C 26.1299,505.228 31.9632,507.395 36,514.5C 42.2165,532.484 49.2165,550.151 57,567.5C 66.0251,575.033 75.8585,576.533 86.5,572C 102.385,563.115 114.552,550.615 123,534.5C 132.639,517.752 138.139,499.752 139.5,480.5C 138.558,468.064 135.725,456.064 131,444.5C 124.413,429.739 118.413,414.739 113,399.5C 97.0694,334.29 115.236,280.79 167.5,239C 188.177,224.158 210.51,212.158 234.5,203C 250.683,196.939 267.017,191.272 283.5,186C 287.5,183.667 291.5,181.333 295.5,179C 323.647,168.76 350.647,156.093 376.5,141C 378.458,138.252 380.291,135.418 382,132.5C 398.265,119.57 413.265,105.237 427,89.5C 434.833,79 442.667,68.5 450.5,58C 457.708,53.837 463.874,55.0036 469,61.5C 475.342,81.0445 474.676,100.378 467,119.5C 457.598,140.539 445.431,159.705 430.5,177C 427.446,179.194 424.112,180.861 420.5,182C 397.373,211.372 369.707,235.372 337.5,254C 324.167,264.667 310.833,275.333 297.5,286C 264.1,317.296 244.266,355.796 238,401.5C 237.333,406.833 237.333,412.167 238,417.5C 239.442,421.275 241.942,424.108 245.5,426C 253.932,428.92 262.599,430.753 271.5,431.5C 273.926,431.596 276.093,430.93 278,429.5C 278.546,426.145 278.379,422.812 277.5,419.5C 279.707,410.419 283.541,402.085 289,394.5C 302.376,376.736 318.209,361.569 336.5,349C 385.136,315.855 438.136,292.188 495.5,278C 517.89,274.278 540.223,270.278 562.5,266C 574.632,261.105 585.632,254.438 595.5,246C 602.667,238.833 609.833,231.667 617,224.5C 620.895,216.045 624.228,207.378 627,198.5C 628.518,179.339 628.351,160.173 626.5,141C 626.561,137.627 626.894,134.293 627.5,131C 624.927,126.116 623.261,120.949 622.5,115.5C 624.263,88.9799 634.43,66.3133 653,47.5C 672.294,27.5335 694.794,12.3668 720.5,2C 737.483,1.0921 743.65,8.92543 739,25.5C 732.529,37.4441 726.862,49.7774 722,62.5C 718.344,77.7396 717.844,93.073 720.5,108.5C 719.531,113.158 719.031,117.824 719,122.5C 723.73,142.689 730.063,162.356 738,181.5C 744.667,194.167 751.333,206.833 758,219.5C 784.944,248.432 809.611,279.099 832,311.5C 839.296,321.133 848.13,328.967 858.5,335C 860.167,335.667 861.833,335.667 863.5,335C 866.045,294.033 878.212,256.199 900,221.5C 903.091,216.986 906.425,212.653 910,208.5C 912.577,202.34 915.91,196.673 920,191.5C 927.833,183.667 935.667,175.833 943.5,168C 957.291,157.211 970.791,146.044 984,134.5C 990.43,125.973 996.096,116.973 1001,107.5C 1004.65,92.2453 1007.98,76.912 1011,61.5C 1013.27,43.8766 1014.94,26.2099 1016,8.5C 1017.11,4.23406 1019.61,1.23406 1023.5,-0.5 Z M 383.5,557.5 C 433.059,560.125 477.059,576.958 515.5,608C 543.952,637.383 550.786,671.217 536,709.5C 531,720.5 526,731.5 521,742.5C 519.314,744.919 516.981,745.919 514,745.5C 458.049,732.587 401.549,729.42 344.5,736C 308.152,742.439 275.152,756.439 245.5,778C 237.683,784.983 230.016,792.15 222.5,799.5C 213.259,802.637 206.093,799.97 201,791.5C 181.955,756.543 180.622,720.876 197,684.5C 209.501,659.669 225.334,637.169 244.5,617C 255.508,607.663 267.341,599.496 280,592.5C 281.487,594.272 281.82,596.272 281,598.5C 268.218,621.13 269.885,642.464 286,662.5C 308.02,679.889 331.52,682.055 356.5,669C 374.983,654.563 381.816,635.73 377,612.5C 373.945,598.454 367.111,586.621 356.5,577C 352.469,574.545 348.136,572.879 343.5,572C 341.825,570.291 340.158,568.624 338.5,567C 344.008,565.019 349.675,563.352 355.5,562C 364.992,560.584 374.325,559.084 383.5,557.5 Z M 816.5,557.5 C 835.68,558.119 854.347,561.286 872.5,567C 870.842,568.624 869.175,570.291 867.5,572C 862.471,573.229 857.804,575.229 853.5,578C 831.784,600.431 827.284,625.931 840,654.5C 855.01,673.507 874.51,680.674 898.5,676C 930.397,666.381 942.897,645.215 936,612.5C 934.177,606.687 931.677,601.187 928.5,596C 929.071,594.795 929.738,593.628 930.5,592.5C 952.093,603.251 970.259,618.251 985,637.5C 999.255,656.674 1010.92,677.34 1020,699.5C 1029.72,731.642 1026.39,762.309 1010,791.5C 1007.17,795 1004.33,798.5 1001.5,802C 998.399,804.351 995.066,804.851 991.5,803.5C 968.111,776.64 939.444,757.473 905.5,746C 867.129,733.455 827.796,729.121 787.5,733C 756.911,734.293 726.744,738.46 697,745.5C 694.019,745.919 691.686,744.919 690,742.5C 680.186,724.525 672.852,705.525 668,685.5C 664.942,648.46 678.442,619.293 708.5,598C 741.116,575.297 777.116,561.797 816.5,557.5 Z"/></g>
<g><path style="opacity:0.012" fill="#3c8a00" d="M 479.5,105.5 C 480.525,105.897 480.692,106.563 480,107.5C 479.536,106.906 479.369,106.239 479.5,105.5 Z"/></g>
<g><path style="opacity:0.008" fill="#43c400" d="M 1125.5,945.5 C 1126.83,946.167 1126.83,946.167 1125.5,945.5 Z"/></g>
<g><path style="opacity:0.031" fill="#43c400" d="M 1122.5,948.5 C 1123.83,949.167 1123.83,949.167 1122.5,948.5 Z"/></g>
<g><path style="opacity:0.027" fill="#43c400" d="M 1115.5,956.5 C 1117.2,953.605 1119.54,951.772 1122.5,951C 1120.56,953.454 1118.23,955.287 1115.5,956.5 Z"/></g>
<g><path style="opacity:0.027" fill="#43c400" d="M 1115.5,956.5 C 1114.83,957.167 1114.83,957.167 1115.5,956.5 Z"/></g>
<g><path style="opacity:0.016" fill="#43c400" d="M 1114.5,957.5 C 1113.83,958.167 1113.83,958.167 1114.5,957.5 Z"/></g>
<g><path style="opacity:0.004" fill="#43c400" d="M 1113.5,958.5 C 1112.83,959.167 1112.83,959.167 1113.5,958.5 Z"/></g>
<g><path style="opacity:0.004" fill="#42c400" d="M 208.5,1026.5 C 207.833,1025.17 207.833,1025.17 208.5,1026.5 Z"/></g>
<g><path style="opacity:0.044" fill="#42c400" d="M 208.5,1026.5 C 210.027,1026.43 211.027,1027.09 211.5,1028.5C 209.973,1028.57 208.973,1027.91 208.5,1026.5 Z"/></g>
<g><path style="opacity:0.01" fill="#42c400" d="M 211.5,1028.5 C 212.239,1028.37 212.906,1028.54 213.5,1029C 212.563,1029.69 211.897,1029.53 211.5,1028.5 Z"/></g>
<g><path style="opacity:0.004" fill="#42c400" d="M 214.5,1029.5 C 215.833,1030.17 215.833,1030.17 214.5,1029.5 Z"/></g>
</svg>
